<?xml version="1.0" encoding="UTF-8" standalone="no"?>
<svg
   xmlns:dc="http://purl.org/dc/elements/1.1/"
   xmlns:cc="http://creativecommons.org/ns#"
   xmlns:rdf="http://www.w3.org/1999/02/22-rdf-syntax-ns#"
   xmlns:svg="http://www.w3.org/2000/svg"
   xmlns="http://www.w3.org/2000/svg"
   xmlns:sodipodi="http://sodipodi.sourceforge.net/DTD/sodipodi-0.dtd"
   xmlns:inkscape="http://www.inkscape.org/namespaces/inkscape"
   width="22"
   height="22"
   viewBox="0 0 5.8208332 5.8208335"
   version="1.1"
   id="svg8"
   inkscape:version="1.0.2-2 (e86c870879, 2021-01-15)"
   sodipodi:docname="Button.svg"
   inkscape:export-filename="C:\Users\uniewski\source\repos\#OSS\MarkdownMonsterTocUpdater\TocUpdaterAddin\Assets\Icon_22_Dark.png"
   inkscape:export-xdpi="96"
   inkscape:export-ydpi="96">
  <defs
     id="defs2">
    <marker
       style="overflow:visible;"
       id="Arrow2Send"
       refX="0.0"
       refY="0.0"
       orient="auto"
       inkscape:stockid="Arrow2Send"
       inkscape:isstock="true">
      <path
         transform="scale(0.3) rotate(180) translate(-2.3,0)"
         d="M 8.7185878,4.0337352 L -2.2072895,0.016013256 L 8.7185884,-4.0017078 C 6.9730900,-1.6296469 6.9831476,1.6157441 8.7185878,4.0337352 z "
         style="fill-rule:evenodd;stroke-width:0.625;stroke-linejoin:round;stroke:#0072ff;stroke-opacity:1;fill:#0072ff;fill-opacity:1"
         id="path946" />
    </marker>
    <marker
       style="overflow:visible;"
       id="Arrow2Lend"
       refX="0.0"
       refY="0.0"
       orient="auto"
       inkscape:stockid="Arrow2Lend"
       inkscape:isstock="true">
      <path
         transform="scale(1.1) rotate(180) translate(1,0)"
         d="M 8.7185878,4.0337352 L -2.2072895,0.016013256 L 8.7185884,-4.0017078 C 6.9730900,-1.6296469 6.9831476,1.6157441 8.7185878,4.0337352 z "
         style="fill-rule:evenodd;stroke-width:0.625;stroke-linejoin:round;stroke:#0072ff;stroke-opacity:1;fill:#0072ff;fill-opacity:1"
         id="path934" />
    </marker>
    <marker
       style="overflow:visible;"
       id="Arrow1Send"
       refX="0.0"
       refY="0.0"
       orient="auto"
       inkscape:stockid="Arrow1Send"
       inkscape:isstock="true">
      <path
         transform="scale(0.2) rotate(180) translate(6,0)"
         style="fill-rule:evenodd;stroke:#0072ff;stroke-width:1pt;stroke-opacity:1;fill:#0072ff;fill-opacity:1"
         d="M 0.0,0.0 L 5.0,-5.0 L -12.5,0.0 L 5.0,5.0 L 0.0,0.0 z "
         id="path928" />
    </marker>
    <marker
       style="overflow:visible;"
       id="Arrow1Lend"
       refX="0.0"
       refY="0.0"
       orient="auto"
       inkscape:stockid="Arrow1Lend"
       inkscape:isstock="true">
      <path
         transform="scale(0.8) rotate(180) translate(12.5,0)"
         style="fill-rule:evenodd;stroke:#0072ff;stroke-width:1pt;stroke-opacity:1;fill:#0072ff;fill-opacity:1"
         d="M 0.0,0.0 L 5.0,-5.0 L -12.5,0.0 L 5.0,5.0 L 0.0,0.0 z "
         id="path916" />
    </marker>
    <marker
       style="overflow:visible"
       id="Arrow2Send-5"
       refX="0"
       refY="0"
       orient="auto"
       inkscape:stockid="Arrow2Send"
       inkscape:isstock="true">
      <path
         transform="matrix(-0.3,0,0,-0.3,0.69,0)"
         d="M 8.7185878,4.0337352 -2.2072895,0.01601326 8.7185884,-4.0017078 c -1.7454984,2.3720609 -1.7354408,5.6174519 -6e-7,8.035443 z"
         style="fill:#0072ff;fill-opacity:1;fill-rule:evenodd;stroke:#0072ff;stroke-width:0.625;stroke-linejoin:round;stroke-opacity:1"
         id="path946-7" />
    </marker>
  </defs>
  <sodipodi:namedview
     id="base"
     pagecolor="#000000"
     bordercolor="#666666"
     borderopacity="1.0"
     inkscape:pageopacity="0"
     inkscape:pageshadow="2"
     inkscape:zoom="8"
     inkscape:cx="15.257964"
     inkscape:cy="22.551911"
     inkscape:document-units="mm"
     inkscape:current-layer="layer1"
     inkscape:document-rotation="0"
     showgrid="false"
     units="px"
     inkscape:object-paths="true"
     inkscape:snap-grids="true"
     inkscape:snap-nodes="true"
     inkscape:snap-page="true"
     inkscape:snap-smooth-nodes="true"
     inkscape:window-width="1920"
     inkscape:window-height="1027"
     inkscape:window-x="-8"
     inkscape:window-y="-8"
     inkscape:window-maximized="1">
    <inkscape:grid
       type="xygrid"
       id="grid833" />
  </sodipodi:namedview>
  <metadata
     id="metadata5">
    <rdf:RDF>
      <cc:Work
         rdf:about="">
        <dc:format>image/svg+xml</dc:format>
        <dc:type
           rdf:resource="http://purl.org/dc/dcmitype/StillImage" />
        <dc:title></dc:title>
      </cc:Work>
    </rdf:RDF>
  </metadata>
  <g
     inkscape:label="Ebene 1"
     inkscape:groupmode="layer"
     id="layer1">
    <rect
       style="fill:#ffffff;stroke-width:0.264583;stroke-miterlimit:0"
       id="rect873"
       width="5.8208332"
       height="5.8208332"
       x="0"
       y="0" />
    <path
       id="rect835"
       style="fill:#000000;fill-opacity:1;stroke-width:1.10397"
       d="M 2 2 L 2 5 L 15 5 L 15 2 L 2 2 z M 17 2 L 17 5 L 20 5 L 20 2 L 17 2 z M 5 7 L 5 10 L 13.503906 10 A 6.2260815 6.2260815 0 0 1 15 9.6171875 L 15 7 L 5 7 z M 17 7 L 17 9.6933594 A 6.2260815 6.2260815 0 0 1 18.048828 10 L 20 10 L 20 7 L 17 7 z M 2 12 L 2 15 L 9.5996094 15 A 6.2260815 6.2260815 0 0 1 10.839844 12 L 2 12 z M 5 17 L 5 20 L 11.183594 20 A 6.2260815 6.2260815 0 0 1 9.6660156 17 L 5 17 z "
       transform="scale(0.26458333)" />
    <path
       d="m 5.3345227,3.9644985 c 0,-0.00292 0,-0.00726 -0.00145,-0.010163 C 5.209713,3.4405844 4.785939,3.0821183 4.2504162,3.0821183 c -0.2829998,0 -0.5572919,0.1117481 -0.7633737,0.307671 L 3.2998272,3.2025747 c -0.017415,-0.017414 -0.040636,-0.027575 -0.065308,-0.027575 -0.050795,0 -0.092882,0.042088 -0.092882,0.092882 v 0.6501735 c 0,0.050793 0.042087,0.092882 0.092882,0.092882 h 0.6501741 c 0.050795,0 0.092882,-0.042088 0.092882,-0.092882 0,-0.024673 -0.010163,-0.047891 -0.027575,-0.065307 L 3.7511755,3.6539222 C 3.8875958,3.5262099 4.0690061,3.4536454 4.2562212,3.4536454 c 0.2583281,0 0.4977895,0.1335181 0.6327586,0.3541124 0.03483,0.0566 0.052246,0.1117481 0.076918,0.1698002 0.00726,0.020316 0.021769,0.033378 0.043539,0.033378 H 5.288083 c 0.026123,0 0.046442,-0.021766 0.046442,-0.046441 z m 0.036282,1.161025 v -0.650174 c 0,-0.050793 -0.042087,-0.092882 -0.092882,-0.092882 H 4.6277486 c -0.050795,0 -0.092882,0.042088 -0.092882,0.092882 0,0.024673 0.010163,0.047891 0.027575,0.065309 L 4.762718,4.7409348 C 4.6248463,4.8686471 4.4434361,4.9397602 4.2562209,4.9397602 c -0.2583281,0 -0.4977895,-0.133518 -0.6327586,-0.3541127 -0.03483,-0.0566 -0.052246,-0.1117492 -0.076918,-0.1697997 -0.00726,-0.020316 -0.021769,-0.033378 -0.043539,-0.033378 H 3.2142012 c -0.026123,0 -0.046441,0.021766 -0.046441,0.046441 v 0.010163 c 0.1248102,0.5152048 0.5529381,0.8722201 1.0884608,0.8722201 0.284451,0 0.5616458,-0.1131996 0.7677276,-0.3076716 l 0.1886668,0.1872152 c 0.017415,0.017414 0.040637,0.027575 0.065308,0.027575 0.050794,0 0.092882,-0.042088 0.092882,-0.092882 z"
       style="fill:#0097ff;fill-opacity:1;stroke:none;stroke-width:0.00038398;stroke-linecap:butt;stroke-linejoin:miter;stroke-miterlimit:0;stroke-dasharray:none;stroke-opacity:1;paint-order:normal"
       id="path1709" />
  </g>
</svg>
